<svg width="27" height="27" viewBox="0 0 27 27" fill="none" xmlns="http://www.w3.org/2000/svg">
<g clip-path="url(#clip0_41_99)">
<rect width="27" height="27" rx="10" fill="#9400FF"/>
<path d="M19.8102 7.78179C18.3776 6.34923 16.4261 5.43834 14.2637 5.34644L11.777 9.12515H13.8151C16.3964 9.12515 18.4884 11.2172 18.4884 13.7985C18.4884 15.0878 17.9668 16.2582 17.1208 17.1042C16.2747 17.9476 15.1071 18.4719 13.8151 18.4719H10.0688L6.62793 21.9966H13.9232C18.5182 21.9966 22.2482 18.2692 22.2482 13.6688C22.2482 11.3686 21.3157 9.29003 19.8102 7.78179Z" fill="white"/>
<path d="M9.56025 14.2832L8.99885 15.0979H11.741L9.56025 17.3294L5.10121 21.8939V21.8088L7.66495 16.3404H5.45989L7.55548 12.5077H4.58008L5.10121 11.5084L8.30744 5.35486H12.7949L9.86407 9.80174L9.51322 10.3353L12.2829 10.3361L9.56025 14.2832Z" fill="white"/>
</g>
<defs>
<clipPath id="clip0_41_99">
<rect width="27" height="27" fill="white"/>
</clipPath>
</defs>
</svg>
