<svg width="82" height="25" viewBox="0 0 82 25" fill="none" xmlns="http://www.w3.org/2000/svg">
<path d="M14.5838 7.08189C13.2269 5.73776 11.3784 4.8831 9.33025 4.79688L6.97486 8.34232H8.90525C11.3503 8.34232 13.3319 10.3052 13.3319 12.7272C13.3319 13.9369 12.8377 15.035 12.0364 15.8288C11.235 16.6201 10.129 17.1121 8.90525 17.1121H5.3568L2.09766 20.4192H9.00766C13.36 20.4192 16.8931 16.9219 16.8931 12.6055C16.8931 10.4473 16.0098 8.49702 14.5838 7.08189Z" fill="white"/>
<path d="M4.87539 13.1819L4.34364 13.9463H6.94097L4.87539 16.04L0.651812 20.3227V20.2428L3.08017 15.1121H0.991553L2.97648 11.5159H0.158203L0.651812 10.5783L3.68873 4.80469H7.9392L5.16316 8.97705L4.83084 9.47768L7.45429 9.47844L4.87539 13.1819Z" fill="white"/>
<path d="M81.9997 11.4906H80.2165V15.0898C80.2165 15.4174 80.279 15.6521 80.4042 15.7938C80.5383 15.9266 80.7394 15.9974 81.0075 16.0063C81.2757 16.0063 81.6064 15.9974 81.9997 15.9797V17.0156C80.9807 17.1484 80.2343 17.0688 79.7606 16.7766C79.2869 16.4755 79.05 15.9133 79.05 15.0898V11.4906H77.7227V10.375H79.05V8.86094L80.2165 8.51562V10.375H81.9997V11.4906Z" fill="white"/>
<path d="M71.9521 14.2266C72.0683 14.8198 72.3409 15.2803 72.7699 15.6079C73.2079 15.9355 73.7442 16.0993 74.3788 16.0993C75.2637 16.0993 75.9073 15.7761 76.3095 15.1297L77.3017 15.6875C76.6492 16.6881 75.666 17.1883 74.352 17.1883C73.2884 17.1883 72.4213 16.8607 71.751 16.2055C71.0895 15.5415 70.7588 14.7047 70.7588 13.6954C70.7588 12.6948 71.085 11.8625 71.7375 11.1985C72.39 10.5344 73.2347 10.2024 74.2716 10.2024C75.2548 10.2024 76.0548 10.5477 76.6715 11.2383C77.2972 11.9201 77.6101 12.7435 77.6101 13.7086C77.6101 13.8769 77.5967 14.0495 77.5699 14.2266H71.9521ZM74.2716 11.2915C73.6459 11.2915 73.1275 11.4685 72.7163 11.8227C72.3051 12.168 72.0504 12.6329 71.9521 13.2172H76.4302C76.3319 12.5886 76.0816 12.1105 75.6794 11.7829C75.2772 11.4553 74.8079 11.2915 74.2716 11.2915Z" fill="white"/>
<path d="M68.5908 17.0156V7.32031H69.7573V17.0156H68.5908Z" fill="white"/>
<path d="M66.0469 17.0156V7.32031H67.2133V17.0156H66.0469Z" fill="white"/>
<path d="M63.515 10.375H64.6815V17.0157H63.515V15.8735C62.934 16.75 62.0894 17.1883 60.981 17.1883C60.0425 17.1883 59.2425 16.8519 58.581 16.179C57.9196 15.4972 57.5889 14.6693 57.5889 13.6954C57.5889 12.7214 57.9196 11.898 58.581 11.225C59.2425 10.5433 60.0425 10.2024 60.981 10.2024C62.0894 10.2024 62.934 10.6407 63.515 11.5172V10.375ZM61.1285 16.0727C61.8078 16.0727 62.3754 15.8469 62.8312 15.3954C63.2871 14.9349 63.515 14.3683 63.515 13.6954C63.515 13.0224 63.2871 12.4602 62.8312 12.0086C62.3754 11.5482 61.8078 11.318 61.1285 11.318C60.4581 11.318 59.895 11.5482 59.4391 12.0086C58.9833 12.4602 58.7553 13.0224 58.7553 13.6954C58.7553 14.3683 58.9833 14.9349 59.4391 15.3954C59.895 15.8469 60.4581 16.0727 61.1285 16.0727Z" fill="white"/>
<path d="M56.2082 10.375H57.4283L55.3502 17.0156H54.1569L52.5882 12.1016L51.0195 17.0156H49.8262L47.748 10.375H48.9681L50.443 15.4219L52.0251 10.375H53.1513L54.7334 15.4352L56.2082 10.375Z" fill="white"/>
<path d="M43.5784 12.168C43.5784 12.4248 43.708 12.6329 43.9673 12.7922C44.2265 12.9428 44.5393 13.0667 44.9058 13.1641C45.2723 13.2527 45.6387 13.3589 46.0052 13.4829C46.3717 13.598 46.6845 13.8016 46.9437 14.0938C47.203 14.3771 47.3326 14.7446 47.3326 15.1961C47.3326 15.7982 47.0957 16.2808 46.622 16.6438C46.1572 17.0068 45.5583 17.1883 44.8253 17.1883C44.1728 17.1883 43.6142 17.0467 43.1494 16.7633C42.6846 16.48 42.3539 16.1037 42.1572 15.6344L43.1628 15.0633C43.2701 15.3821 43.4712 15.6344 43.7661 15.8204C44.0611 16.0063 44.4142 16.0993 44.8253 16.0993C45.2097 16.0993 45.527 16.0284 45.7773 15.8868C46.0276 15.7362 46.1527 15.506 46.1527 15.1961C46.1527 14.9394 46.0231 14.7357 45.7639 14.5852C45.5047 14.4258 45.1918 14.3019 44.8253 14.2133C44.4589 14.1159 44.0924 14.0053 43.7259 13.8813C43.3594 13.7573 43.0466 13.5537 42.7874 13.2704C42.5282 12.987 42.3986 12.624 42.3986 12.1813C42.3986 11.6058 42.622 11.1321 43.0689 10.7602C43.5248 10.3883 44.0924 10.2024 44.7717 10.2024C45.317 10.2024 45.7996 10.3264 46.2197 10.5743C46.6488 10.8133 46.9706 11.1498 47.1851 11.5836L46.2063 12.1282C45.965 11.5615 45.4868 11.2782 44.7717 11.2782C44.441 11.2782 44.1594 11.3579 43.927 11.5172C43.6946 11.6678 43.5784 11.8847 43.5784 12.168Z" fill="white"/>
<path d="M40.0456 10.375H41.212V17.0156H40.0456V16.0594C39.5718 16.812 38.8478 17.1883 37.8735 17.1883C37.087 17.1883 36.4568 16.9448 35.9831 16.4578C35.5093 15.962 35.2725 15.2935 35.2725 14.4523V10.375H36.4389V14.3859C36.4389 14.926 36.5864 15.3466 36.8814 15.6477C37.1763 15.9398 37.583 16.0859 38.1015 16.0859C38.6825 16.0859 39.1517 15.9089 39.5093 15.5547C39.8668 15.1917 40.0456 14.6383 40.0456 13.8945V10.375Z" fill="white"/>
<path d="M28.8232 14.2266C28.9394 14.8198 29.212 15.2803 29.641 15.6079C30.079 15.9355 30.6153 16.0993 31.2499 16.0993C32.1348 16.0993 32.7784 15.7761 33.1806 15.1297L34.1728 15.6875C33.5203 16.6881 32.5371 17.1883 31.2231 17.1883C30.1595 17.1883 29.2924 16.8607 28.622 16.2055C27.9606 15.5415 27.6299 14.7047 27.6299 13.6954C27.6299 12.6948 27.9561 11.8625 28.6086 11.1985C29.2611 10.5344 30.1058 10.2024 31.1427 10.2024C32.1259 10.2024 32.9259 10.5477 33.5426 11.2383C34.1683 11.9201 34.4812 12.7435 34.4812 13.7086C34.4812 13.8769 34.4678 14.0495 34.4409 14.2266H28.8232ZM31.1427 11.2915C30.517 11.2915 29.9986 11.4685 29.5874 11.8227C29.1762 12.168 28.9215 12.6329 28.8232 13.2172H33.3013C33.203 12.5886 32.9527 12.1105 32.5505 11.7829C32.1482 11.4553 31.679 11.2915 31.1427 11.2915Z" fill="white"/>
<path d="M25.474 7.71875H26.6405V17.0156H25.474V15.8734C24.893 16.75 24.0483 17.1883 22.94 17.1883C22.0014 17.1883 21.2015 16.8518 20.54 16.1789C19.8786 15.4971 19.5479 14.6693 19.5479 13.6953C19.5479 12.7214 19.8786 11.8979 20.54 11.225C21.2015 10.5432 22.0014 10.2023 22.94 10.2023C24.0483 10.2023 24.893 10.6406 25.474 11.5172V7.71875ZM23.0875 16.0727C23.7668 16.0727 24.3344 15.8469 24.7902 15.3953C25.2461 14.9349 25.474 14.3682 25.474 13.6953C25.474 13.0224 25.2461 12.4602 24.7902 12.0086C24.3344 11.5482 23.7668 11.318 23.0875 11.318C22.4171 11.318 21.854 11.5482 21.3981 12.0086C20.9422 12.4602 20.7143 13.0224 20.7143 13.6953C20.7143 14.3682 20.9422 14.9349 21.3981 15.3953C21.854 15.8469 22.4171 16.0727 23.0875 16.0727Z" fill="white"/>
</svg>
