<svg width="32" height="32" viewBox="0 0 32 32" fill="none" xmlns="http://www.w3.org/2000/svg">
<g clip-path="url(#clip0_41_129)">
<rect width="32" height="32" rx="16" fill="#272727"/>
<path d="M23.4779 9.22289C21.7801 7.52504 19.4671 6.44547 16.9043 6.33655L13.9571 10.815H16.3726C19.4319 10.815 21.9114 13.2945 21.9114 16.3539C21.9114 17.8819 21.2931 19.269 20.2904 20.2717C19.2877 21.2712 17.9038 21.8927 16.3726 21.8927H11.9325L7.85449 26.07H16.5007C21.9466 26.07 26.3675 21.6524 26.3675 16.2001C26.3675 13.4739 25.2622 11.0104 23.4779 9.22289Z" fill="white"/>
<path d="M11.3302 16.9282L10.6648 17.8937H13.9147L11.3302 20.5385L6.04537 25.9483V25.8474L9.08388 19.3664H6.47047L8.95414 14.8238H5.42773L6.04537 13.6395L9.84535 6.34644H15.1638L11.6902 11.6168L11.2744 12.2492L14.557 12.2501L11.3302 16.9282Z" fill="white"/>
</g>
<defs>
<clipPath id="clip0_41_129">
<rect width="32" height="32" fill="white"/>
</clipPath>
</defs>
</svg>
