<svg width="24" height="24" viewBox="0 0 24 24" fill="none" xmlns="http://www.w3.org/2000/svg">
<g clip-path="url(#clip0_41_88)">
<rect x="3" y="3" width="18" height="18" rx="5" fill="#272727"/>
<path d="M16.2061 8.1879C15.2511 7.23286 13.9501 6.6256 12.5085 6.56433L10.8507 9.08347H12.2094C13.9303 9.08347 15.325 10.4782 15.325 12.1991C15.325 13.0586 14.9772 13.8389 14.4132 14.4029C13.8492 14.9651 13.0707 15.3147 12.2094 15.3147H9.71187L7.41797 17.6644H12.2815C15.3448 17.6644 17.8315 15.1795 17.8315 12.1126C17.8315 10.5791 17.2098 9.19339 16.2061 8.1879Z" fill="white"/>
<path d="M9.37285 12.5222L8.99858 13.0653H10.8267L9.37285 14.553L6.40015 17.596V17.5392L8.10931 13.8937H6.63927L8.03634 11.3385H6.05273L6.40015 10.6723L8.53764 6.56995H11.5293L9.57539 9.53454L9.3415 9.89024L11.188 9.89078L9.37285 12.5222Z" fill="white"/>
</g>
<defs>
<clipPath id="clip0_41_88">
<rect width="18" height="18" fill="white" transform="translate(3 3)"/>
</clipPath>
</defs>
</svg>
