<svg width="128" height="128" viewBox="0 0 128 128" fill="none" xmlns="http://www.w3.org/2000/svg">
<g clip-path="url(#clip0_41_91)">
<rect width="128" height="128" rx="30" fill="#9400FF"/>
<path d="M93.9146 36.8916C87.1232 30.1002 77.8715 25.7819 67.6203 25.3462L55.8315 43.2601H65.4932C77.7305 43.2601 87.6485 53.1781 87.6485 65.4154C87.6485 71.5277 85.1754 77.0761 81.1647 81.0869C77.1539 85.0849 71.6183 87.5708 65.4932 87.5708H47.7331L31.4209 104.28H66.0058C87.7895 104.28 105.473 86.6097 105.473 64.8004C105.473 53.8957 101.052 44.0417 93.9146 36.8916Z" fill="white"/>
<path d="M45.3216 67.713L42.6602 71.5752H55.6599L45.3216 82.1544L24.1824 103.793V103.39L36.3365 77.4657H25.8829L35.8175 59.2956H21.7119L24.1824 54.5582L39.3824 25.386H60.6561L46.7619 46.4675L45.0987 48.997L58.2291 49.0008L45.3216 67.713Z" fill="white"/>
</g>
<defs>
<clipPath id="clip0_41_91">
<rect width="128" height="128" fill="white"/>
</clipPath>
</defs>
</svg>
