<svg width="128" height="128" viewBox="0 0 128 128" fill="none" xmlns="http://www.w3.org/2000/svg">
<g clip-path="url(#clip0_78_401)">
<rect width="128" height="128" rx="16" fill="#9400FF"/>
<path d="M94.9043 36.0438C87.8777 29.0172 78.3056 24.5494 67.6994 24.0986L55.5023 42.6329H65.4986C78.1598 42.6329 88.4212 52.8944 88.4212 65.5555C88.4212 71.8795 85.8625 77.6201 81.7128 81.7697C77.5632 85.9062 71.8358 88.4782 65.4986 88.4782H47.1234L30.2463 105.766H66.0289C88.5671 105.766 106.863 87.4838 106.863 64.9192C106.863 53.6368 102.289 43.4417 94.9043 36.0438Z" fill="white"/>
<path d="M44.6288 67.933L41.8752 71.9289H55.3251L44.6288 82.8745L22.7575 105.263V104.845L35.3325 78.0235H24.5168L34.7955 59.224H20.2014L22.7575 54.3227L38.4838 24.1401H60.4943L46.119 45.9518L44.3981 48.5688L57.9833 48.5728L44.6288 67.933Z" fill="white"/>
</g>
<defs>
<clipPath id="clip0_78_401">
<rect width="128" height="128" fill="white"/>
</clipPath>
</defs>
</svg>
